<?xml version="1.0" encoding="UTF-8"?>
<svg xmlns="http://www.w3.org/2000/svg" xmlns:xlink="http://www.w3.org/1999/xlink" version="1.2" >
<font id="Aabel Regular Demo">
<font-face  font-family="Aabel" units-per-em="1024" ascent="975" descent="-300" font-style="normal" font-weight="400" font-stretch="normal" cap-height="1043" x-height="488" underline-position="-125" underline-thickness="50" />
<missing-glyph  horiz-adv-x="512" d="" />
<glyph glyph-name="space" unicode="&#x20;" horiz-adv-x="256" d="" />
<glyph glyph-name="zero" unicode="0" horiz-adv-x="608" d="M80 250 Q80 198 98 155.5 Q116 113 147 82.5 Q178 52 219 35.5 Q260 19 305 19 Q356 19 397.5 37.5 Q439 56 468.5 87.5 Q498 119 514 161 Q530 203 530 250 Q530 302 512 344.5 Q494 387 463.5 417.5 Q433 448 392 464.5 Q351 481 305 481 Q254 481 212.5 462.5 Q171 444 141.5 412.5 Q112 381 96 339 Q80 297 80 250 Z M47 250 Q47 303 65.5 350 Q84 397 118 432.5 Q152 468 199.5 489 Q247 510 305 510 Q357 510 404 491.5 Q451 473 486 438.5 Q521 404 542 356.5 Q563 309 563 250 Q563 198 544.5 150.5 Q526 103 492 67.5 Q458 32 410.5 11 Q363 -10 305 -10 Q253 -10 206 8.5 Q159 27 124 61.5 Q89 96 68 144 Q47 192 47 250 Z " />
<glyph glyph-name="one" unicode="1" horiz-adv-x="281" d="M239 0 L42 0 L42 10 L55 10 Q78 10 91.5 23.5 Q105 37 105 60 L105 440 Q105 463 91.5 476.5 Q78 490 55 490 L42 490 L42 500 L239 500 L239 490 L226 490 Q203 490 189.5 476.5 Q176 463 176 440 L176 60 Q176 37 189.5 23.5 Q203 10 226 10 L239 10 L239 0 Z " />
<glyph glyph-name="two" unicode="2" horiz-adv-x="536" d="M44 297 Q53 346 74 385.5 Q95 425 124 453.5 Q153 482 189.5 497.5 Q226 513 266 513 Q304 513 335.5 501 Q367 489 389.5 467.5 Q412 446 424 415.5 Q436 385 436 347 Q436 314 414 279 Q392 244 353 208 Q314 172 260.5 136 Q207 100 145 64 L392 64 Q421 64 446.5 73.5 Q472 83 485 100 L490 107 L493 104 Q488 94 481 84 Q474 74 466 63 L427 2 L19 2 Q25 2 28 3 L20 9 Q37 18 54 27 Q71 36 88 45 Q96 51 103.5 55.5 Q111 60 119 62 Q172 93 217 125.5 Q262 158 295 191.5 Q328 225 346.5 259.5 Q365 294 365 328 Q365 386 328 421 Q291 456 230 456 Q199 456 171 444 Q143 432 120.5 410.5 Q98 389 82 358.5 Q66 328 59 291 L44 297 Z " />
<glyph glyph-name="three" unicode="3" horiz-adv-x="424" d="M17 -218 Q83 -211 136.5 -193 Q190 -175 228 -149 Q266 -123 287 -89 Q308 -55 308 -17 Q308 15 292.5 43 Q277 71 249.5 93.5 Q222 116 182.5 131.5 Q143 147 95 154 L95 168 Q188 207 244.5 255.5 Q301 304 301 361 Q301 406 269.5 433.5 Q238 461 187 461 Q130 461 88.5 429.5 Q47 398 35 347 L20 351 Q28 387 46.5 416 Q65 445 90.5 466 Q116 487 147.5 498.5 Q179 510 215 510 Q288 510 332 476 Q376 442 376 385 Q376 331 315 279.5 Q254 228 150 179 Q203 176 246.5 162.5 Q290 149 320.5 126 Q351 103 367.5 72 Q384 41 384 3 Q384 -41 358 -80 Q332 -119 284 -150 Q236 -181 169 -202 Q102 -223 20 -232 L18 -218 L17 -218 Z " />
<glyph glyph-name="four" unicode="4" horiz-adv-x="620" d="M609 99 Q604 66 599.5 32 Q595 -2 590 -34 L582 -34 Q580 -33 577 -33 Q577 -16 564.5 -8 Q552 0 530 0 L415 0 L415 -220 L345 -220 L345 0 L15 0 L15 12 L406 530 L415 530 L415 54 L538 54 Q561 54 576.5 67 Q592 80 597 102 L602 101 Q604 100 606 100 Q608 100 609 99 Z M80 54 L345 54 L345 407 L346 409 L79 53 L80 54 Z " />
<glyph glyph-name="five" unicode="5" horiz-adv-x="432" d="M287 500 Q310 500 324.5 509 Q339 518 345 533 L358 533 Q356 522 354 510 Q352 498 350 486 L341 439 L111 437 L80 273 L94 273 Q163 273 220 257 Q277 241 317.5 211.5 Q358 182 380 140.5 Q402 99 402 49 Q402 -5 377.5 -52.5 Q353 -100 308 -137 Q263 -174 200 -199 Q137 -224 60 -233 L59 -220 Q122 -212 174 -190.5 Q226 -169 263 -137 Q300 -105 320.5 -63.5 Q341 -22 341 25 Q341 64 322.5 96 Q304 128 270.5 151 Q237 174 190 186.5 Q143 199 86 199 L55 199 L43 210 L98 500 L287 500 Z " />
<glyph glyph-name="six" unicode="6" horiz-adv-x="568" d="M552 740 Q476 724 410 691.5 Q344 659 291.5 614 Q239 569 201.5 513 Q164 457 144 392 Q167 427 204.5 446 Q242 465 290 465 Q341 465 382.5 449 Q424 433 453.5 403 Q483 373 499 331.5 Q515 290 515 239 Q515 183 499 137 Q483 91 453.5 58.5 Q424 26 382.5 8 Q341 -10 291 -10 Q237 -10 193.5 11.5 Q150 33 118.5 72.5 Q87 112 70 167 Q53 222 53 289 Q53 369 89 442 Q125 515 190 575.5 Q255 636 346.5 681 Q438 726 550 750 L552 740 Z M123 252 Q123 198 135 153 Q147 108 168.5 76.5 Q190 45 220 27.5 Q250 10 287 10 Q322 10 351 26.5 Q380 43 400.5 74 Q421 105 432 148 Q443 191 443 243 Q443 288 431.5 325.5 Q420 363 398.5 389 Q377 415 347 429.5 Q317 444 281 444 Q245 444 216 430 Q187 416 166.5 391 Q146 366 134.5 330.5 Q123 295 123 252 Z " />
<glyph glyph-name="seven" unicode="7" horiz-adv-x="452" d="M94 529 Q95 529 96.5 528.5 Q98 528 100 528 Q103 527 106 526 Q100 501 146 501 L448 501 L448 486 L167 -219 L113 -219 L408 444 L121 444 Q97 444 79.5 433.5 Q62 423 51 406 L41 411 Q44 419 47.5 427 Q51 435 55 443 L67 471 L66 471 Q72 484 79.5 499.5 Q87 515 93 528 L94 529 Z " />
<glyph glyph-name="eight" unicode="8" horiz-adv-x="543" d="M42 173 Q42 234 85.5 290.5 Q129 347 204 384 Q141 419 104 469 Q67 519 67 579 Q67 619 81.5 652 Q96 685 122.5 708.5 Q149 732 186.5 745 Q224 758 269 758 Q316 758 354 746.5 Q392 735 419 713.5 Q446 692 460.5 662 Q475 632 475 596 Q475 544 433.5 494.5 Q392 445 320 410 Q362 391 395.5 369 Q429 347 452.5 319 Q476 291 489 255.5 Q502 220 502 174 Q502 132 485.5 98 Q469 64 438.5 40 Q408 16 365.5 2.5 Q323 -11 271 -11 Q220 -11 177.5 2.5 Q135 16 105 40 Q75 64 58.5 98 Q42 132 42 173 Z M104 174 Q104 137 116 106 Q128 75 150 53 Q172 31 203 19 Q234 7 272 7 Q312 7 344.5 21 Q377 35 400 61 Q423 87 435.5 123.5 Q448 160 448 204 Q448 230 434 251.5 Q420 273 394 292 Q368 311 331.5 329 Q295 347 251 365 L224 377 L224 376 Q169 347 136.5 293.5 Q104 240 104 174 Z M124 606 Q124 549 166 503 Q208 457 277 429 L304 417 Q355 443 385.5 489 Q416 535 416 589 Q416 625 406.5 654 Q397 683 379.5 704 Q362 725 337.5 736.5 Q313 748 283 748 Q247 748 218 738 Q189 728 168 709 Q147 690 135.5 664 Q124 638 124 606 Z " />
<glyph glyph-name="nine" unicode="9" horiz-adv-x="568" d="M16 -240 Q93 -224 158.5 -191.5 Q224 -159 276.5 -114 Q329 -69 366.5 -12.5 Q404 44 424 108 Q401 73 363.5 54 Q326 35 278 35 Q227 35 185.5 51 Q144 67 114.5 97 Q85 127 69 168.5 Q53 210 53 261 Q53 317 69 363 Q85 409 114.5 441.5 Q144 474 185.5 492 Q227 510 277 510 Q331 510 374.5 488.5 Q418 467 449.5 427.5 Q481 388 498 333 Q515 278 515 211 Q515 131 479.5 58 Q444 -15 378.5 -75.5 Q313 -136 221.5 -181 Q130 -226 18 -250 L16 -240 Z M445 248 Q445 302 433 347 Q421 392 399.5 423.5 Q378 455 348 472.5 Q318 490 281 490 Q246 490 217 473.5 Q188 457 167.5 426 Q147 395 136 352.5 Q125 310 125 257 Q125 212 136.5 174.5 Q148 137 169.5 111 Q191 85 221 70.5 Q251 56 287 56 Q323 56 352 70 Q381 84 401.5 109 Q422 134 433.5 169.5 Q445 205 445 248 Z " />
<glyph glyph-name="A" unicode="A" horiz-adv-x="714" d="M443 13 L460 13 Q502 13 518.5 40.5 Q535 68 521 113 Q508 155 495 197.5 Q482 240 469 282 L215 282 L161 113 Q147 68 163 40.5 Q179 13 221 13 L238 13 L238 0 L-8 0 L-8 13 L9 13 Q52 13 87 40.5 Q122 68 137 113 Q187 264 236 413.5 Q285 563 335 715 L332 725 Q362 730 379 742 Q396 754 393 770 L401 770 Q452 605 503.5 441.5 Q555 278 607 113 Q621 68 646.5 40.5 Q672 13 700 13 L710 13 L710 0 L442 0 L443 13 Z M462 303 L344 688 L222 303 L462 303 Z " />
<glyph glyph-name="B" unicode="B" horiz-adv-x="641" d="M305 8 Q351 8 389 16 Q427 24 454 45.5 Q481 67 495.5 104.5 Q510 142 510 200 Q510 242 495 276 Q480 310 452.5 334 Q425 358 386.5 371.5 Q348 385 301 385 L210 385 L210 64 Q210 38 222.5 23 Q235 8 255 8 L305 8 Z M64 750 L295 750 Q381 750 436 737 Q491 724 522.5 700.5 Q554 677 566 644 Q578 611 578 570 Q578 504 532.5 458.5 Q487 413 408 395 Q452 389 488 372 Q524 355 549 330 Q574 305 587.5 272 Q601 239 601 200 Q601 139 581.5 100.5 Q562 62 526.5 39.5 Q491 17 441 8.5 Q391 0 330 0 L64 0 L64 13 L77 13 Q100 13 113.5 26.5 Q127 40 127 63 L127 687 Q127 710 113.5 723.5 Q100 737 77 737 L64 737 L64 750 Z M302 399 Q346 399 381.5 410.5 Q417 422 442 443.5 Q467 465 481 495 Q495 525 495 561 Q495 600 485 631.5 Q475 663 449 685.5 Q423 708 378 720.5 Q333 733 262 733 L210 733 L210 399 L302 399 Z " />
<glyph glyph-name="C" unicode="C" horiz-adv-x="725" d="M664 552 L657 573 Q627 658 562 698.5 Q497 739 409 739 Q350 739 301 713 Q252 687 217.5 639 Q183 591 164 524 Q145 457 145 375 Q145 293 163 225.5 Q181 158 214.5 110 Q248 62 294.5 35.5 Q341 9 398 9 Q441 9 481 20 Q521 31 555 52 Q589 73 615 104.5 Q641 136 656 178 L663 199 L681 199 L681 23 L670 23 Q669 27 668.5 32 Q668 37 667 41 Q664 63 643 63 Q626 63 600 46 Q560 20 509 5 Q458 -10 390 -10 Q314 -10 252 17.5 Q190 45 146 95.5 Q102 146 78 217 Q54 288 54 375 Q54 462 79 533 Q104 604 149.5 654.5 Q195 705 259 732.5 Q323 760 401 760 Q473 760 521 745 Q569 730 606 703 Q630 688 646 688 Q664 688 667 707 Q668 711 668.5 715.5 Q669 720 670 724 L681 724 L681 551 L664 552 Z " />
<glyph glyph-name="D" unicode="D" horiz-adv-x="813" d="M265 17 Q355 17 429.5 40 Q504 63 556.5 108 Q609 153 638 220 Q667 287 667 375 Q667 456 641.5 522 Q616 588 565.5 635 Q515 682 439.5 708 Q364 734 264 734 Q260 734 256 734 Q252 733 247 733 Q242 733 237 733 Q225 733 210 733 L210 58 Q210 39 219 28 Q228 17 265 17 Z M64 750 L330 750 Q436 750 516 723 Q596 696 650 647 Q704 598 731 528.5 Q758 459 758 375 Q758 282 724.5 212 Q691 142 629.5 95 Q568 48 481.5 24 Q395 0 290 0 L64 0 L64 10 L77 10 Q100 10 113.5 23.5 Q127 37 127 60 L127 690 Q127 713 113.5 726.5 Q100 740 77 740 L64 740 L64 750 Z " />
<glyph glyph-name="E" unicode="E" horiz-adv-x="606" d="M45 749 L521 749 Q524 719 528 684 Q532 649 536 619 L523 619 L512 652 Q501 688 472 710 Q443 732 407 732 L210 732 L210 405 L345 405 Q381 405 407 427 Q433 449 440 485 L447 518 L460 518 L460 272 L447 272 L440 305 Q433 341 407 363 Q381 385 345 385 L210 385 L210 58 Q210 40 219.5 29 Q229 18 268 18 L408 18 Q456 18 493.5 42 Q531 66 546 105 L553 121 L566 121 Q561 95 556 65 Q551 35 546 9 L547 9 L545 0 L44 0 L44 10 L57 10 Q89 10 108 29 Q127 48 127 80 L127 670 Q127 702 108 721 Q89 740 57 740 L44 740 L45 749 Z " />
<glyph glyph-name="F" unicode="F" horiz-adv-x="581" d="M45 750 L521 750 Q525 721 528.5 686.5 Q532 652 536 623 L523 623 L512 656 Q501 692 472 714 Q443 736 407 736 L210 736 L210 405 L335 405 Q371 405 397 427 Q423 449 430 485 L437 518 L450 518 L450 272 L437 272 L430 305 Q423 341 397 363 Q371 385 335 385 L210 385 L210 80 Q210 48 229 29 Q248 10 280 10 L293 10 L293 0 L44 0 L44 10 L57 10 Q89 10 108 29 Q127 48 127 80 L127 670 Q127 702 108 721 Q89 740 57 740 L44 740 L45 750 Z " />
<glyph glyph-name="G" unicode="G" horiz-adv-x="778" d="M401 760 Q473 760 521 745 Q569 730 606 703 Q630 688 646 688 Q664 688 667 707 Q668 711 668.5 715.5 Q669 720 670 724 L681 724 L681 551 L664 550 L657 571 Q627 656 562 696.5 Q497 737 409 737 Q350 737 301 711 Q252 685 217.5 637 Q183 589 164 522 Q145 455 145 373 Q145 290 164 222 Q183 154 218 106 Q253 58 302 31.5 Q351 5 411 5 Q482 5 527 27.5 Q572 50 577 88 L577 226 Q577 264 560 287.5 Q543 311 515 311 L504 311 L504 324 L732 324 L732 311 L721 311 Q693 311 676 287.5 Q659 264 659 226 L659 42 Q678 48 696 55.5 Q714 63 731 71 L736 59 Q652 22 571 6 Q490 -10 397 -10 Q320 -10 256.5 17.5 Q193 45 148 95.5 Q103 146 78.5 217 Q54 288 54 375 Q54 462 79 533 Q104 604 149.5 654.5 Q195 705 259 732.5 Q323 760 401 760 Z " />
<glyph glyph-name="H" unicode="H" horiz-adv-x="799" d="M740 0 L531 0 L531 10 L544 10 Q567 10 580.5 23.5 Q594 37 594 60 L594 383 L246 383 L246 60 Q246 37 259.5 23.5 Q273 10 296 10 L309 10 L309 0 L100 0 L100 10 L113 10 Q136 10 149.5 23.5 Q163 37 163 60 L163 690 Q163 713 149.5 726.5 Q136 740 113 740 L100 740 L100 750 L309 750 L309 740 L296 740 Q273 740 259.5 726.5 Q246 713 246 690 L246 404 L594 404 L594 690 Q594 713 580.5 726.5 Q567 740 544 740 L531 740 L531 750 L740 750 L740 740 L727 740 Q704 740 690.5 726.5 Q677 713 677 690 L677 60 Q677 37 690.5 23.5 Q704 10 727 10 L740 10 L740 0 Z " />
<glyph glyph-name="I" unicode="I" horiz-adv-x="331" d="M272 0 L63 0 L63 10 L76 10 Q99 10 112.5 23.5 Q126 37 126 60 L126 690 Q126 713 112.5 726.5 Q99 740 76 740 L63 740 L63 750 L272 750 L272 740 L259 740 Q236 740 222.5 726.5 Q209 713 209 690 L209 60 Q209 37 222.5 23.5 Q236 10 259 10 L272 10 L272 0 Z " />
<glyph glyph-name="J" unicode="J" horiz-adv-x="331" d="M272 740 L259 740 Q236 740 222.5 726.5 Q209 713 209 690 L209 100 Q209 -1 188.5 -63.5 Q168 -126 137.5 -161 Q107 -196 70.5 -208 Q34 -220 1 -220 Q-34 -220 -56 -204 Q-78 -188 -78 -162 Q-78 -145 -68 -135 Q-58 -125 -41 -125 Q-26 -125 -20 -135.5 Q-14 -146 -10 -158 Q-6 -170 0 -180.5 Q6 -191 21 -191 Q38 -191 56 -186 Q74 -181 90 -166 Q106 -151 116 -124.5 Q126 -98 126 -56 L126 690 Q126 713 112.5 726.5 Q99 740 76 740 L63 740 L63 750 L272 750 L272 740 Z " />
<glyph glyph-name="K" unicode="K" horiz-adv-x="706" d="M64 0 L64 10 L77 10 Q100 10 113.5 23.5 Q127 37 127 60 L127 690 Q127 713 113.5 726.5 Q100 740 77 740 L64 740 L64 750 L273 750 L272 741 L259 741 Q236 741 222.5 727.5 Q209 714 209 691 L209 376 L427 641 Q464 686 459 713.5 Q454 741 409 741 L385 741 L385 751 L626 751 L626 741 L608 741 Q582 741 552 726.5 Q522 712 498 687 L275 427 L595 57 Q615 36 639 23 Q663 10 685 10 L698 10 L698 0 L536 0 L210 375 L210 60 Q210 37 223.5 23.5 Q237 10 260 10 L273 10 L273 0 L64 0 Z " />
<glyph glyph-name="L" unicode="L" horiz-adv-x="596" d="M565 116 Q560 90 556 57.5 Q552 25 544 0 L63 0 L63 10 L76 10 Q99 10 112.5 23.5 Q126 37 126 60 L126 690 Q126 713 112.5 726.5 Q99 740 76 740 L63 740 L63 750 L272 750 L272 740 L259 740 Q236 740 222.5 726.5 Q209 713 209 690 L209 58 Q209 38 218.5 26 Q228 14 267 14 L407 14 Q455 14 492.5 38 Q530 62 545 101 L552 117 L565 117 L565 116 Z " />
<glyph glyph-name="M" unicode="M" horiz-adv-x="839" d="M53 751 L210 751 L448 109 L664 751 L806 751 L806 741 L793 741 Q770 741 757 727.5 Q744 714 745 691 Q750 532 754.5 374 Q759 216 764 57 Q766 36 780 23.5 Q794 11 816 11 L828 11 L828 1 L620 1 L620 11 L633 11 Q656 11 669 24.5 Q682 38 681 61 Q678 214 674 366.5 Q670 519 666 673 L434 5 L433 0 L412 0 Q347 163 282.5 323.5 Q218 484 152 647 L141 54 Q142 34 155 21.5 Q168 9 189 9 L202 9 L202 -1 L48 -1 L48 9 L60 9 Q81 9 95 21.5 Q109 34 111 54 L130 697 Q120 717 102 728.5 Q84 740 64 740 L52 740 L53 751 Z " />
<glyph glyph-name="N" unicode="N" horiz-adv-x="732" d="M-1 751 L157 751 L587 145 L586 691 Q586 714 572.5 727.5 Q559 741 536 741 L523 741 L523 751 L673 751 L673 741 L661 741 Q641 741 627 729.5 Q613 718 611 698 L604 0 L588 0 Q476 159 364 316 Q252 473 139 631 L141 60 Q141 37 154.5 23.5 Q168 10 191 10 L203 10 L203 0 L54 0 L54 10 L66 10 Q89 10 102.5 23.5 Q116 37 116 60 L117 662 L92 697 Q76 717 54 728.5 Q32 740 11 740 L-1 740 L-1 751 Z " />
<glyph glyph-name="O" unicode="O" horiz-adv-x="831" d="M144 375 Q144 293 162.5 226 Q181 159 215.5 111 Q250 63 298 37 Q346 11 405 11 Q468 11 520 37 Q572 63 609 111 Q646 159 666.5 226 Q687 293 687 375 Q687 457 667 524 Q647 591 610 639 Q573 687 521.5 713 Q470 739 407 739 Q348 739 299.5 713 Q251 687 216.5 639 Q182 591 163 524 Q144 457 144 375 Z M55 375 Q55 462 80.5 533 Q106 604 152.5 654.5 Q199 705 265 732.5 Q331 760 411 760 Q493 760 560.5 732.5 Q628 705 676 654.5 Q724 604 750 533 Q776 462 776 375 Q776 288 749 217 Q722 146 673 95.5 Q624 45 554.5 17.5 Q485 -10 401 -10 Q323 -10 259 17.5 Q195 45 150 95.5 Q105 146 80 217 Q55 288 55 375 Z " />
<glyph glyph-name="P" unicode="P" horiz-adv-x="584" d="M293 0 L85 0 L85 10 L98 10 Q121 10 134.5 23.5 Q148 37 148 60 L148 690 Q148 713 134.5 726.5 Q121 740 98 740 L85 740 L85 750 L330 750 Q383 750 426 735 Q469 720 499.5 692.5 Q530 665 547 626 Q564 587 564 540 Q564 490 543.5 453.5 Q523 417 485.5 393.5 Q448 370 396 358.5 Q344 347 280 347 L230 347 L230 60 Q230 37 243.5 23.5 Q257 10 280 10 L293 10 L293 0 Z M280 365 Q327 365 365 376 Q403 387 430 410 Q457 433 472 468.5 Q487 504 487 553 Q487 594 474 628 Q461 662 438 686 Q415 710 382 723 Q349 736 309 736 L230 736 L230 365 L280 365 Z " />
<glyph glyph-name="Q" unicode="Q" horiz-adv-x="826" d="M1126 -44 Q1097 -68 1058.5 -88.5 Q1020 -109 976.5 -123 Q933 -137 886.5 -145 Q840 -153 795 -153 Q731 -153 660 -141 Q589 -129 519.5 -106.5 Q450 -84 384 -53 Q318 -22 263 16 Q166 56 110.5 149.5 Q55 243 55 375 Q55 462 80.5 533 Q106 604 152.5 654.5 Q199 705 265 732.5 Q331 760 411 760 Q493 760 560.5 732.5 Q628 705 676 654.5 Q724 604 750 533 Q776 462 776 375 Q776 288 749 217 Q722 146 673 95.5 Q624 45 554.5 17.5 Q485 -10 401 -10 Q375 -10 351 -7 Q386 -25 435 -39 Q484 -53 543 -63 Q602 -73 669.5 -78.5 Q737 -84 808 -84 Q866 -84 917 -80.5 Q968 -77 1009 -71 Q1050 -65 1078.5 -56.5 Q1107 -48 1120 -37 L1126 -44 Z M325 9 Q352 0 382 0 Q451 0 507 27 Q563 54 603 103 Q643 152 665 221.5 Q687 291 687 375 Q687 457 667 524 Q647 591 610 639 Q573 687 521.5 713 Q470 739 407 739 Q348 739 299.5 713 Q251 687 216.5 639 Q182 591 163 524 Q144 457 144 375 Q144 303 156.5 241.5 Q169 180 192.5 133 Q216 86 249.5 54 Q283 22 324 9 L325 9 Z " />
<glyph glyph-name="R" unicode="R" horiz-adv-x="719" d="M66 750 L332 750 Q386 750 430.5 735 Q475 720 506.5 692 Q538 664 555.5 625.5 Q573 587 573 539 Q573 464 530 422 Q487 380 412 366 Q431 334 477 257 Q523 180 589 70 Q602 48 611 35.5 Q620 23 632 17 Q644 11 662 10 Q680 9 710 9 L710 0 Q647 0 610.5 1.5 Q574 3 552.5 10 Q531 17 519 31 Q507 45 492 70 Q460 124 432.5 170.5 Q405 217 383.5 254.5 Q362 292 347 319 Q332 346 326 359 L210 359 L210 60 Q210 37 223.5 23.5 Q237 10 260 10 L273 10 L273 0 L64 0 L64 10 L77 10 Q100 10 113.5 23.5 Q127 37 127 60 L127 690 Q127 713 113.5 726.5 Q100 740 77 740 L64 740 L66 750 Z M332 380 Q400 380 441 422 Q482 464 482 555 Q482 595 469.5 628 Q457 661 434 684 Q411 707 378.5 720 Q346 733 307 733 L212 733 L212 380 L332 380 Z " />
<glyph glyph-name="S" unicode="S" horiz-adv-x="549" d="M449 574 Q426 651 379 695 Q332 739 251 739 Q197 739 164.5 701 Q132 663 132 600 Q132 553 179 505 Q226 457 320 418 Q414 379 461 318.5 Q508 258 508 190 Q508 145 492.5 108 Q477 71 449.5 45 Q422 19 382.5 4.5 Q343 -10 295 -10 Q250 -10 208.5 5 Q167 20 132 46 Q106 66 87 66 Q67 66 64 44 Q63 39 62.5 33 Q62 27 61 22 L50 22 L50 216 L68 216 Q80 173 99.5 136.5 Q119 100 146.5 73 Q174 46 210.5 31 Q247 16 295 16 Q361 16 401 57 Q441 98 441 166 Q441 209 398 253 Q355 297 270 332 Q169 374 118 436.5 Q67 499 67 568 Q67 611 80.5 646.5 Q94 682 118 707 Q142 732 176 746 Q210 760 251 760 Q295 760 334 748 Q373 736 404 715 Q423 704 436 704 Q451 704 454 718 Q455 721 455.5 725 Q456 729 457 732 L468 732 L468 574 L449 574 Z " />
<glyph glyph-name="T" unicode="T" horiz-adv-x="775" d="M711 773 Q712 772 715.5 761 Q719 750 721 750 L721 749 Q723 741 724 738 L723 738 Q733 712 745.5 681.5 Q758 651 769 625 L756 625 L744 643 Q721 681 683 704.5 Q645 728 607 728 L429 728 L429 59 Q429 36 442.5 22.5 Q456 9 479 9 L492 9 L492 -1 L283 -1 L283 9 L296 9 Q319 9 332.5 22.5 Q346 36 346 59 L346 728 L168 728 Q130 728 92 704.5 Q54 681 31 643 L19 625 L6 625 Q17 651 29.5 681.5 Q42 712 52 738 L51 738 Q52 741 54 749 L54 750 Q56 750 59.5 761 Q63 772 64 773 L74 773 Q88 762 116 756 Q144 750 186 750 L589 750 Q631 750 659 756 Q687 762 701 773 L711 773 Z " />
<glyph glyph-name="U" unicode="U" horiz-adv-x="689" d="M175 750 L175 220 Q175 140 207 91.5 Q239 43 293 43 Q328 43 361.5 53 Q395 63 424 81.5 Q453 100 476 126 Q499 152 514 184 L514 690 Q514 713 500.5 726.5 Q487 740 464 740 L451 740 L451 750 L597 750 L597 71 Q597 32 632 32 Q637 32 647 34 L660 38 L659 27 Q642 22 623.5 17.5 Q605 13 587 8 L556 0 L514 0 L514 147 Q498 112 471 83 Q444 54 411 33.5 Q378 13 339.5 1.5 Q301 -10 260 -10 Q222 -10 191 6.5 Q160 23 138 53 Q116 83 104 125.5 Q92 168 92 220 L92 690 Q92 713 78.5 726.5 Q65 740 42 740 L29 740 L29 750 L175 750 Z " />
<glyph glyph-name="V" unicode="V" horiz-adv-x="776" d="M720 736 L710 736 Q686 736 660.5 711.5 Q635 687 618 645 L363 -11 L346 -11 L91 652 Q54 736 6 736 L6 749 L261 749 L261 736 L244 736 Q203 736 188.5 710 Q174 684 190 640 L391 112 L588 648 Q599 689 581 713 Q563 737 521 737 L498 737 L498 750 L721 750 L720 736 Z " />
<glyph glyph-name="W" unicode="W" horiz-adv-x="1044" d="M234 739 L221 739 Q191 739 178.5 720.5 Q166 702 174 670 L372 102 L533 503 L477 660 Q464 696 443 718 Q422 740 400 740 L391 740 L391 753 L643 753 L643 740 L619 740 Q585 740 570.5 720 Q556 700 564 667 L749 116 L905 668 Q912 700 895.5 719.5 Q879 739 845 739 L806 739 L806 752 L1030 752 L1030 739 L1019 739 Q993 739 970.5 720 Q948 701 936 669 L735 -8 L714 -8 L546 466 L350 -9 L329 -9 Q268 162 207 331 Q146 500 84 671 Q55 737 7 737 L7 750 L234 750 L234 739 Z " />
<glyph glyph-name="X" unicode="X" horiz-adv-x="751" d="M476 10 L497 10 Q522 10 527.5 25 Q533 40 517 65 L518 65 L344 339 L159 65 Q142 40 147 25 Q152 10 177 10 L218 10 L218 0 L17 0 L17 10 L34 10 Q59 10 85 25 Q111 40 128 65 Q180 137 231 209.5 Q282 282 334 355 L117 696 Q83 740 42 740 L42 750 L263 750 L263 740 L242 740 Q217 740 211.5 725 Q206 710 222 685 Q264 618 306.5 551 Q349 484 392 417 L576 685 Q593 710 588.5 725 Q584 740 559 740 L518 740 L518 750 L723 750 L723 740 L705 740 Q682 740 658.5 727.5 Q635 715 617 694 L403 401 L624 55 Q657 10 701 10 L701 0 L478 0 L476 10 Z " />
<glyph glyph-name="Y" unicode="Y" horiz-adv-x="720" d="M255 739 L233 739 Q208 739 202.5 724 Q197 709 212 684 Q262 601 312 518.5 Q362 436 413 353 L580 685 Q593 710 585.5 725 Q578 740 553 740 L510 740 L510 750 L721 750 L721 740 L703 740 Q680 740 657.5 726.5 Q635 713 621 690 L421 328 L421 80 Q421 48 440 29 Q459 10 491 10 L504 10 L504 0 L256 0 L256 10 L269 10 Q301 10 320 29 Q339 48 339 80 L339 325 L109 692 Q76 740 31 740 L31 750 L253 750 L255 739 Z " />
<glyph glyph-name="Z" unicode="Z" horiz-adv-x="641" d="M58 627 Q60 653 62 674 Q64 695 65 710 Q67 727 68 741 L69 752 L609 752 L609 735 L122 20 L478 25 Q523 27 560 51 Q597 75 614 113 L622 128 L635 128 Q629 102 624 81 Q619 60 616 45 Q611 27 608 13 L605 1 L24 1 L24 18 L520 733 L196 729 Q153 725 120.5 701.5 Q88 678 77 640 L72 625 L58 627 Z " />
<glyph glyph-name="a" unicode="a" horiz-adv-x="513" d="M330 264 L330 382 Q330 438 304 463.5 Q278 489 235 489 Q210 489 189.5 480 Q169 471 154 458 Q139 445 131 430.5 Q123 416 123 404 Q123 392 133 375.5 Q143 359 143 346 Q143 335 132.5 322.5 Q122 310 105 310 Q88 310 78 323.5 Q68 337 68 360 Q68 380 82 406 Q96 432 121 455 Q146 478 182 494 Q218 510 261 510 Q324 510 361.5 473.5 Q399 437 399 357 Q399 357 399.5 346 Q400 335 400 316.5 Q400 298 400 274.5 Q400 251 400 226 Q400 167 400 93 Q400 71 415 58 Q430 45 455 45 Q475 45 490 59.5 Q505 74 510 98 L523 92 L524 92 Q516 48 489.5 21.5 Q463 -5 427 -5 Q385 -5 359 19 Q333 43 330 84 Q278 33 236.5 11.5 Q195 -10 163 -10 Q112 -10 80.5 16 Q49 42 49 85 Q49 117 61 139 Q73 161 104.5 180 Q136 199 190.5 218.5 Q245 238 330 264 Z M120 92 Q120 63 142 45 Q164 27 200 27 Q226 27 257.5 44 Q289 61 330 101 L330 247 Q266 228 225.5 212.5 Q185 197 161.5 180.5 Q138 164 129 143 Q120 122 120 92 Z " />
<glyph glyph-name="b" unicode="b" horiz-adv-x="532" d="M10 730 Q27 735 49 740.5 Q71 746 88 751 L88 750 L123 750 L123 432 Q150 465 188 485 Q226 505 264 505 Q314 505 355.5 487 Q397 469 426 435.5 Q455 402 471 355.5 Q487 309 487 252 Q487 193 471 145 Q455 97 425.5 62.5 Q396 28 354.5 9 Q313 -10 262 -10 Q205 -10 159 11 Q113 32 84 69 L57 0 L53 0 L53 674 Q53 721 10 721 L10 730 Z M123 111 L124 111 Q143 63 181 34.5 Q219 6 266 6 Q298 6 324.5 23 Q351 40 370 71.5 Q389 103 399 146.5 Q409 190 409 244 Q409 296 396.5 339 Q384 382 361.5 412.5 Q339 443 307 459.5 Q275 476 236 476 Q208 476 177.5 458.5 Q147 441 123 411 L123 111 Z " />
<glyph glyph-name="c" unicode="c" horiz-adv-x="487" d="M457 128 Q429 65 377 27.5 Q325 -10 266 -10 Q216 -10 175.5 8 Q135 26 106 58 Q77 90 61 136 Q45 182 45 237 Q45 299 62 349 Q79 399 110 435 Q141 471 185 490.5 Q229 510 282 510 Q344 510 392 481.5 Q440 453 457 405 Q463 389 453.5 379.5 Q444 370 422 370 Q412 370 402.5 379.5 Q393 389 387 405 Q373 445 343 469.5 Q313 494 278 494 Q242 494 212 478 Q182 462 161 432.5 Q140 403 128.5 361.5 Q117 320 117 270 Q117 217 129.5 173 Q142 129 164.5 98 Q187 67 219 50 Q251 33 290 33 Q341 33 384 60 Q427 87 447 132 L457 128 Z " />
<glyph glyph-name="d" unicode="d" horiz-adv-x="574" d="M288 509 Q328 509 363 498.5 Q398 488 426 470 L426 674 Q426 720 383 720 L382 728 Q383 728 389.5 730 Q396 732 404 734 Q412 736 418.5 737.5 Q425 739 425 740 L461 749 L496 749 L496 68 Q496 29 531 29 Q536 29 546 31 L559 35 L559 25 Q536 19 509.5 11.5 Q483 4 460 -2 L460 -1 L425 -1 L425 68 Q399 35 355.5 14.5 Q312 -6 264 -6 Q215 -6 174.5 12.5 Q134 31 105.5 65 Q77 99 61 146 Q45 193 45 251 Q45 309 60.5 356.5 Q76 404 106.5 438 Q137 472 182.5 490.5 Q228 509 288 509 Z M116 270 Q116 215 128.5 169 Q141 123 164 91 Q187 59 219.5 41 Q252 23 292 23 Q329 23 365 42 Q401 61 425 93 L425 374 Q418 397 405 418 Q392 439 374.5 455 Q357 471 336.5 480 Q316 489 295 489 Q251 489 217.5 473 Q184 457 161.5 428.5 Q139 400 127.5 359.5 Q116 319 116 270 Z " />
<glyph glyph-name="e" unicode="e" horiz-adv-x="535" d="M125 339 Q119 305 119 261 Q119 211 131.5 169.5 Q144 128 166.5 98.5 Q189 69 221 53 Q253 37 292 37 Q363 37 415.5 64 Q468 91 485 136 L493 133 Q481 101 459.5 74.5 Q438 48 409.5 29.5 Q381 11 347 0.5 Q313 -10 275 -10 Q223 -10 180.5 7.5 Q138 25 108 57 Q78 89 61.5 133.5 Q45 178 45 233 Q45 308 63 360.5 Q81 413 114.5 446 Q148 479 194.5 494.5 Q241 510 298 510 Q378 510 433 471 Q488 432 505 340 L125 340 L125 339 Z M425 359 Q408 431 374 462 Q340 493 295 493 Q233 493 189.5 461 Q146 429 129 356 L424 359 L425 359 Z " />
<glyph glyph-name="f" unicode="f" horiz-adv-x="334" d="M214 0 L58 0 L58 10 L86 10 Q101 10 101 25 L101 463 L4 463 L4 471 L101 500 Q101 557 114 604 Q127 651 153 684.5 Q179 718 217 736.5 Q255 755 306 755 Q367 755 404 734.5 Q441 714 441 680 Q441 660 428.5 647.5 Q416 635 396 635 Q383 635 369.5 650.5 Q356 666 341.5 684 Q327 702 311.5 717.5 Q296 733 281 733 Q254 733 233 716.5 Q212 700 198.5 669 Q185 638 178 595.5 Q171 553 171 500 L324 500 L324 463 L171 463 L171 25 Q171 10 186 10 L214 10 L214 0 Z " />
<glyph glyph-name="g" unicode="g" horiz-adv-x="520" d="M541 471 Q541 457 533 448.5 Q525 440 511 440 Q505 440 497.5 444.5 Q490 449 482.5 454.5 Q475 460 467.5 464.5 Q460 469 454 469 Q433 469 411 437 Q434 400 434 351 Q434 315 421 285 Q408 255 385 233.5 Q362 212 329 200.5 Q296 189 256 189 Q184 189 140.5 172.5 Q97 156 97 128 Q97 105 120.5 91.5 Q144 78 182 78 L299 78 Q349 78 384 67 Q419 56 441.5 36.5 Q464 17 474 -10.5 Q484 -38 484 -71 Q484 -107 468.5 -136 Q453 -165 424.5 -185.5 Q396 -206 355.5 -217.5 Q315 -229 266 -229 Q217 -229 176.5 -219.5 Q136 -210 107.5 -192 Q79 -174 63 -149 Q47 -124 47 -93 Q47 -59 73.5 -31.5 Q100 -4 145 10 Q104 18 80 43 Q56 68 56 106 Q56 141 91.5 165.5 Q127 190 189 198 Q137 215 107 254.5 Q77 294 77 351 Q77 387 90 416.5 Q103 446 126.5 467 Q150 488 183 499.5 Q216 511 256 511 Q304 511 341.5 494.5 Q379 478 402 449 Q420 478 444.5 495.5 Q469 513 495 513 Q515 513 527.5 501.5 Q540 490 540 471 L541 471 Z M258 205 Q306 205 335.5 244.5 Q365 284 365 350 Q365 415 335.5 454 Q306 493 258 493 Q209 493 179.5 454 Q150 415 150 350 Q150 284 179.5 244.5 Q209 205 258 205 Z M163 8 Q137 -3 122.5 -25.5 Q108 -48 108 -77 Q108 -139 153 -176 Q198 -213 272 -213 Q342 -213 384.5 -179 Q427 -145 427 -88 Q427 -44 396.5 -18 Q366 8 294 8 L180 8 L163 8 Z " />
<glyph glyph-name="h" unicode="h" horiz-adv-x="521" d="M22 721 L22 730 Q39 735 61 740.5 Q83 746 100 751 L100 750 L135 750 L135 381 Q152 410 174 433.5 Q196 457 220.5 474 Q245 491 271.5 500.5 Q298 510 323 510 Q386 510 417.5 465 Q449 420 449 345 L449 25 Q449 10 464 10 L492 10 L492 0 L335 0 L335 10 L363 10 Q378 10 378 25 L378 345 Q378 397 354.5 428.5 Q331 460 283 460 Q241 460 201 433 Q161 406 135 361 L135 25 Q135 10 150 10 L178 10 L178 0 L22 0 L22 10 L50 10 Q65 10 65 25 L65 674 Q65 721 22 721 Z " />
<glyph glyph-name="i" unicode="i" horiz-adv-x="217" d="M110 615 Q89 615 76.5 627.5 Q64 640 64 661 Q64 681 76.5 693.5 Q89 706 110 706 Q131 706 143.5 693.5 Q156 681 156 661 Q156 640 143.5 627.5 Q131 615 110 615 Z M32 480 Q49 485 71 490.5 Q93 496 110 501 L110 500 L145 500 L145 25 Q145 10 160 10 L188 10 L188 0 L32 0 L32 10 L60 10 Q75 10 75 25 L75 424 Q75 471 32 471 L32 480 Z " />
<glyph glyph-name="j" unicode="j" horiz-adv-x="233" d="M108 615 Q87 615 74.5 627.5 Q62 640 62 661 Q62 681 74.5 693.5 Q87 706 108 706 Q129 706 141.5 693.5 Q154 681 154 661 Q154 640 141.5 627.5 Q129 615 108 615 Z M30 480 Q47 485 69 490.5 Q91 496 108 501 L108 500 L143 500 L143 41 Q143 -9 114.5 -56 Q86 -103 38 -130 Q-4 -155 -33 -170 Q-62 -185 -67 -185 Q-90 -185 -108.5 -175.5 Q-127 -166 -127 -140 Q-127 -122 -114.5 -111 Q-102 -100 -82 -100 Q-70 -100 -56.5 -103.5 Q-43 -107 -29 -110.5 Q-15 -114 -1.5 -117.5 Q12 -121 24 -121 Q46 -108 59.5 -63.5 Q73 -19 73 41 L73 424 Q73 471 30 471 L30 480 Z " />
<glyph glyph-name="k" unicode="k" horiz-adv-x="483" d="M23 729 Q40 734 62 739.5 Q84 745 101 750 L101 749 L136 749 L136 279 Q171 306 204 333.5 Q237 361 271 389 Q326 434 332 461.5 Q338 489 293 489 L253 489 L253 499 L485 499 L485 489 Q425 489 348 430 L200 311 L417 47 Q451 10 475 10 L475 0 L322 0 L322 10 Q338 10 340.5 18 Q343 26 328 46 L146 267 L138 261 L135 269 L135 25 Q135 10 150 10 L178 10 L178 0 L22 0 L22 10 L50 10 Q65 10 65 25 L65 674 Q65 721 22 721 L23 729 Z " />
<glyph glyph-name="l" unicode="l" horiz-adv-x="207" d="M22 730 Q39 735 61 740.5 Q83 746 100 751 L100 750 L135 750 L135 25 Q135 10 150 10 L178 10 L178 0 L22 0 L22 10 L50 10 Q65 10 65 25 L65 674 Q65 721 22 721 L22 730 Z " />
<glyph glyph-name="m" unicode="m" horiz-adv-x="811" d="M22 471 L22 480 Q39 485 61 490.5 Q83 496 100 501 L100 500 L135 500 L135 386 Q167 442 212.5 476 Q258 510 301 510 Q364 510 395 477.5 Q426 445 434 388 Q450 415 470 437.5 Q490 460 512 476 Q534 492 557 501 Q580 510 602 510 Q639 510 664.5 498 Q690 486 706.5 464.5 Q723 443 730.5 412.5 Q738 382 738 345 L738 25 Q738 10 753 10 L781 10 L781 0 L624 0 L624 10 L652 10 Q667 10 667 25 L667 345 Q667 396 645.5 427 Q624 458 573 458 Q535 458 497.5 434 Q460 410 436 370 Q437 364 437 358 Q437 352 437 345 L437 25 Q437 10 452 10 L480 10 L480 0 L323 0 L323 10 L351 10 Q366 10 366 25 L366 345 Q366 396 344.5 427 Q323 458 272 458 Q234 458 196.5 433 Q159 408 135 366 L135 25 Q135 10 150 10 L178 10 L178 0 L22 0 L22 10 L50 10 Q65 10 65 25 L65 424 Q65 471 22 471 Z " />
<glyph glyph-name="n" unicode="n" horiz-adv-x="509" d="M22 471 L22 480 Q39 485 61 490.5 Q83 496 100 501 L100 500 L135 500 L135 381 Q169 439 214 474.5 Q259 510 301 510 Q369 510 403 460.5 Q437 411 437 330 L437 25 Q437 10 452 10 L480 10 L480 0 L323 0 L323 10 L351 10 Q366 10 366 25 L366 330 Q366 388 339.5 423.5 Q313 459 259 459 Q229 459 195 432.5 Q161 406 135 361 L135 25 Q135 10 150 10 L178 10 L178 0 L22 0 L22 10 L50 10 Q65 10 65 25 L65 424 Q65 471 22 471 Z " />
<glyph glyph-name="o" unicode="o" horiz-adv-x="609" d="M123 250 Q123 196 136 152 Q149 108 173 76.5 Q197 45 230.5 28 Q264 11 305 11 Q346 11 379.5 28 Q413 45 437 76.5 Q461 108 474 152 Q487 196 487 250 Q487 304 474 348 Q461 392 437 423.5 Q413 455 379.5 472 Q346 489 305 489 Q264 489 230.5 472 Q197 455 173 423.5 Q149 392 136 348 Q123 304 123 250 Z M45 250 Q45 309 63.5 356.5 Q82 404 116.5 438.5 Q151 473 199 491.5 Q247 510 305 510 Q363 510 411 491.5 Q459 473 493 438.5 Q527 404 545.5 356.5 Q564 309 564 250 Q564 192 545.5 144 Q527 96 493 61.5 Q459 27 411 8.5 Q363 -10 305 -10 Q247 -10 199 8.5 Q151 27 116.5 61.5 Q82 96 63.5 144 Q45 192 45 250 Z " />
<glyph glyph-name="p" unicode="p" horiz-adv-x="533" d="M35 -210 Q50 -210 50 -195 L50 424 Q50 471 7 471 L8 480 Q25 485 47 490.5 Q69 496 86 501 L86 500 L121 500 L121 437 Q144 470 183.5 490 Q223 510 268 510 Q318 510 358.5 491.5 Q399 473 428 440 Q457 407 473 360 Q489 313 489 256 Q489 203 471.5 155.5 Q454 108 421.5 72.5 Q389 37 344 16 Q299 -5 243 -5 Q208 -5 177 5.5 Q146 16 120 36 L120 -195 Q120 -210 135 -210 L163 -210 L163 -220 L7 -220 L7 -210 L35 -210 Z M247 13 Q284 13 314.5 30.5 Q345 48 366.5 78 Q388 108 400 148 Q412 188 412 233 Q412 289 399.5 334.5 Q387 380 364 412.5 Q341 445 308.5 463 Q276 481 236 481 Q206 481 175 461.5 Q144 442 121 409 L121 130 Q137 77 171.5 45 Q206 13 247 13 Z " />
<glyph glyph-name="q" unicode="q" horiz-adv-x="531" d="M282 510 Q335 510 379 490 Q423 470 452 435 L457 440 L480 500 L484 500 L484 -195 Q484 -210 499 -210 L527 -210 L527 -221 L371 -221 L371 -211 L399 -211 Q414 -211 414 -196 L414 64 Q387 32 345.5 13.5 Q304 -5 259 -5 Q208 -5 166.5 13.5 Q125 32 95.5 66 Q66 100 50 147 Q34 194 34 252 Q34 310 49.5 357.5 Q65 405 96.5 439 Q128 473 174.5 491.5 Q221 510 282 510 Z M288 23 Q321 23 355 40.5 Q389 58 414 88 L414 388 L415 388 Q396 436 359.5 464.5 Q323 493 278 493 Q235 493 203 477 Q171 461 149.5 432 Q128 403 117 362 Q106 321 106 271 Q106 215 119 169.5 Q132 124 156 91.5 Q180 59 213.5 41 Q247 23 288 23 Z " />
<glyph glyph-name="r" unicode="r" horiz-adv-x="373" d="M22 480 Q39 485 61 490.5 Q83 496 100 501 L100 500 L135 500 L135 396 Q154 448 193 479 Q232 510 280 510 Q317 510 339.5 491.5 Q362 473 362 442 Q362 423 351 412 Q340 401 321 401 Q302 401 290.5 412 Q279 423 279 442 Q279 458 270 467.5 Q261 477 247 477 Q214 477 183.5 445.5 Q153 414 136 360 L136 25 Q136 10 151 10 L179 10 L179 0 L23 0 L23 10 L51 10 Q66 10 66 25 L66 424 Q66 471 23 471 L22 480 Z " />
<glyph glyph-name="s" unicode="s" horiz-adv-x="426" d="M70 154 Q71 151 71.5 147.5 Q72 144 73 141 Q78 114 91.5 89.5 Q105 65 124.5 46.5 Q144 28 169 17.5 Q194 7 222 7 Q267 7 294.5 34.5 Q322 62 322 107 Q322 143 293 174 Q264 205 207 223 Q135 246 98 289 Q61 332 61 383 Q61 440 99 475 Q137 510 200 510 Q239 510 273 496 Q321 476 336 476 Q340 476 340 478 Q341 480 341 482.5 Q341 485 342 487 L351 487 L351 366 L342 366 Q341 369 340.5 372.5 Q340 376 339 379 Q329 429 293.5 461 Q258 493 199 493 Q159 493 134.5 469.5 Q110 446 110 408 Q110 367 142 332 Q174 297 237 277 Q306 255 341 215 Q376 175 376 127 Q376 65 333.5 27.5 Q291 -10 221 -10 Q175 -10 135 13 Q95 36 78 36 Q72 36 71 32 Q70 30 70 26.5 Q70 23 69 21 L60 21 L60 154 L70 154 Z " />
<glyph glyph-name="t" unicode="t" horiz-adv-x="362" d="M319 463 L165 463 L164 131 Q164 72 186 47.5 Q208 23 245 23 Q276 23 303 41 Q330 59 344 88 L352 84 Q332 42 297 16 Q262 -10 224 -10 Q166 -10 130.5 26 Q95 62 95 147 L95 471 L30 471 L30 481 L160 620 L165 620 L165 500 L319 500 L319 463 Z " />
<glyph glyph-name="u" unicode="u" horiz-adv-x="500" d="M131 499 L131 159 Q131 104 157 71 Q183 38 227 38 Q269 38 305.5 65.5 Q342 93 362 140 L362 475 Q362 490 347 490 L319 490 L319 500 L433 500 L433 69 Q433 50 442 39.5 Q451 29 466 29 Q470 29 478 31 L486 33 L485 21 Q463 16 441 10 Q419 4 397 -2 L397 -1 L362 -1 L362 119 Q336 59 291 24 Q246 -11 194 -11 Q164 -11 139.5 1 Q115 13 97.5 35.5 Q80 58 70.5 89.5 Q61 121 61 159 L61 474 Q61 489 46 489 L18 489 L18 499 L131 499 Z " />
<glyph glyph-name="v" unicode="v" horiz-adv-x="487" d="M462 489 Q421 489 400 434 Q360 322 320.5 211.5 Q281 101 241 -11 L220 -11 L69 434 Q51 489 8 489 L8 499 L166 499 L166 489 Q130 489 144 440 L259 104 L370 435 Q389 490 349 490 L349 500 L463 500 L462 489 Z " />
<glyph glyph-name="w" unicode="w" horiz-adv-x="747" d="M25 500 L185 500 L185 489 Q145 489 164 434 L274 106 L360 350 Q353 373 345 397.5 Q337 422 329 446 Q310 490 273 490 L273 500 L434 500 L434 490 Q394 490 413 435 L412 435 L520 106 L635 435 Q656 490 615 490 L615 500 L730 500 L730 490 Q693 490 671 447 L499 -10 L479 -10 L373 311 L255 -10 L234 -10 L234 -9 L83 441 Q64 490 25 490 L25 500 Z " />
<glyph glyph-name="x" unicode="x" horiz-adv-x="490" d="M178 491 L172 491 Q158 491 159 476 Q160 461 175 436 Q196 401 217.5 366 Q239 331 260 296 L350 436 Q366 461 367.5 476 Q369 491 355 491 L349 491 L349 501 L459 501 L459 491 Q417 491 379 436 L271 279 L406 58 Q439 10 478 10 L478 0 L312 0 L312 10 L318 10 Q332 10 331 25 Q330 40 315 65 Q292 103 268.5 142 Q245 181 222 219 L114 60 Q100 37 98.5 23.5 Q97 10 110 10 L116 10 L116 0 L6 0 L6 10 Q45 10 82 56 L213 234 L85 444 Q52 490 15 490 L15 500 L180 500 L178 491 Z " />
<glyph glyph-name="y" unicode="y" horiz-adv-x="491" d="M480 490 Q442 490 422 446 L257 -10 L199 -168 Q192 -189 180.5 -206 Q169 -223 156 -235 Q143 -247 131 -253.5 Q119 -260 110 -260 Q88 -260 75 -247 Q62 -234 62 -212 Q62 -192 73.5 -180.5 Q85 -169 105 -169 Q114 -169 119.5 -173 Q125 -177 130.5 -181.5 Q136 -186 141.5 -190 Q147 -194 155 -194 Q159 -194 167.5 -184.5 Q176 -175 182 -158 L240 0 L66 446 Q44 490 8 490 L8 500 L165 500 L165 490 L159 490 Q144 490 141 475 Q138 460 148 435 Q180 351 213.5 268 Q247 185 280 101 L393 444 Q405 490 369 490 L369 500 L483 500 L480 490 Z " />
<glyph glyph-name="z" unicode="z" horiz-adv-x="475" d="M37 400 Q45 430 49 446 Q53 462 56 471.5 Q59 481 61 489 Q63 497 67 510 L81 510 L80 508 Q82 500 111 500 L435 500 L435 483 L126 19 L322 23 Q357 27 384 45 Q411 63 423 90 L428 101 L443 101 Q441 81 439.5 63.5 Q438 46 436 32 Q435 16 434 3 L430 3 L430 1 L40 1 L40 18 L350 482 L170 478 Q135 474 105.5 456 Q76 438 59 411 L52 400 L37 400 Z " />
</font>
</svg>
